<svg xmlns="http://www.w3.org/2000/svg"><symbol viewBox="0 0 32 32" id="facebook"><path d="M28.8 0H3.2A3.2 3.2 0 000 3.2v25.6A3.2 3.2 0 003.2 32H16V19.953h-4.8v-4.518H16V13.01c0-4.594 2.384-6.61 6.28-6.61 1.83 0 2.814.13 3.292.194l.028.003v4.32h-2.658c-1.654 0-2.142.856-2.142 2.588v1.93h4.758l-.657 4.518H20.8V32h8a3.2 3.2 0 003.2-3.2V3.2A3.2 3.2 0 0028.8 0z" fill-opacity=".9"/></symbol><symbol viewBox="0 0 32 32" id="twitter"><path fill-rule="evenodd" clip-rule="evenodd" d="M28.8 0H3.2A3.2 3.2 0 000 3.2v25.6A3.2 3.2 0 003.2 32h25.6a3.2 3.2 0 003.2-3.2V3.2A3.2 3.2 0 0028.8 0zm-4.24 9.983a9.42 9.42 0 002.64-.7 9.186 9.186 0 01-2.294 2.3c.008.19.013.383.013.575 0 5.872-4.621 12.642-13.075 12.642-2.595 0-5.01-.736-7.044-1.996.36.042.726.063 1.097.063a9.42 9.42 0 005.707-1.903c-2.01-.036-3.708-1.321-4.293-3.086a4.746 4.746 0 002.075-.077C7.285 17.394 5.7 15.598 5.7 13.445v-.056c.62.332 1.329.532 2.082.556-1.233-.797-2.044-2.157-2.044-3.698 0-.815.227-1.578.621-2.235 2.268 2.689 5.653 4.458 9.473 4.643a4.348 4.348 0 01-.12-1.012c0-2.453 2.058-4.443 4.596-4.443 1.322 0 2.516.54 3.354 1.404a9.408 9.408 0 002.919-1.08 4.48 4.48 0 01-2.02 2.459z" fill-opacity=".9"/></symbol><symbol viewBox="0 0 32 32" id="linkedin"><path fill-rule="evenodd" clip-rule="evenodd" d="M28.8 0H3.2A3.2 3.2 0 000 3.2v25.6A3.2 3.2 0 003.2 32h25.6a3.2 3.2 0 003.2-3.2V3.2A3.2 3.2 0 0028.8 0zM6.4 7.302a2.505 2.505 0 005.01 0 2.506 2.506 0 00-5.01 0zM6.8 25.6h4.3V11.782H6.8V25.6zm20.4 0h-4.296v-6.72c0-1.603-.029-3.664-2.233-3.664-2.237 0-2.58 1.746-2.58 3.548V25.6h-4.296V11.782h4.123v1.888h.059c.574-1.086 1.975-2.232 4.066-2.232 4.353 0 5.157 2.862 5.157 6.583V25.6z" fill-opacity=".9"/></symbol><symbol viewBox="0 0 32 32" id="instagram"><path fill-rule="evenodd" clip-rule="evenodd" d="M9.6 0h12.8A9.6 9.6 0 0132 9.6v12.8a9.6 9.6 0 01-9.6 9.6H9.6A9.6 9.6 0 010 22.4V9.6A9.6 9.6 0 019.6 0zm16 4.8c.8 0 1.6.8 1.6 1.6S26.4 8 25.6 8 24 7.2 24 6.4s.8-1.6 1.6-1.6zM24 16c0-4.412-3.588-8-8-8s-8 3.588-8 8 3.588 8 8 8 8-3.588 8-8zm-8-4.8a4.8 4.8 0 100 9.6 4.8 4.8 0 000-9.6z" fill-opacity=".9"/></symbol></svg>