<svg xmlns="http://www.w3.org/2000/svg"><symbol viewBox="0 0 27 26" id="comment"><path d="M24.235 16.184l-.06.09c-.286.418-.277.472-.206.762l1.029 3.917a.232.232 0 01-.29.282l-4.493-1.299c-.226-.065-.51.006-.69.075a19.6 19.6 0 01-1.587.52c-.707.193-1.994.48-2.95.48-6.012 0-10.687-4.8-10.687-10.568 0-.719.078-1.435.232-2.137C5.558 3.568 9.932 0 15.176 0 21.188 0 26.05 4.675 26.03 10.437a10.13 10.13 0 01-1.796 5.747z"/><path d="M14.966 22.369a9.585 9.585 0 001.35-.12.25.25 0 01.26.135.249.249 0 01-.048.29 9.833 9.833 0 01-6.768 2.67c-1.307 0-2.613-.286-3.794-.75a.975.975 0 00-.75-.013L1.27 25.988a.232.232 0 01-.303-.263l.818-4.194c.025-.112-.056-.281-.2-.5a9.213 9.213 0 01.863-11.33.252.252 0 01.437.18v.003c-.006.174-.013.348-.013.53 0 2.668.826 5.218 2.34 7.224a10.683 10.683 0 003.08 2.862c1.886 1.219 4.212 1.869 6.674 1.869z"/></symbol><symbol viewBox="0 0 16 10" id="arrow"><path fill-rule="evenodd" clip-rule="evenodd" d="M.293 2.207A1 1 0 011.707.793L8 7.086 14.293.793a1 1 0 111.414 1.414l-7 7a1 1 0 01-1.414 0l-7-7z"/></symbol></svg>